<?xml version="1.0" encoding="utf-8"?>
<!-- Generator: Adobe Illustrator 14.0.0, SVG Export Plug-In . SVG Version: 6.00 Build 43363)  -->
<!DOCTYPE svg PUBLIC "-//W3C//DTD SVG 1.1//EN" "http://www.w3.org/Graphics/SVG/1.1/DTD/svg11.dtd">
<svg version="1.1" id="Layer_2" xmlns="http://www.w3.org/2000/svg" xmlns:xlink="http://www.w3.org/1999/xlink" x="0px" y="0px"
	 width="792px" height="792px" viewBox="0 0 792 792" enable-background="new 0 0 792 792" xml:space="preserve">
<path fill="#94C35B" d="M402.135,147.059c2.135,0.796,4.316,1.466,6.332,2.002c-3.975,1.59-8.799,2.892-13.899,3.692
	c-3.546,0.559-7.049,0.847-10.397,0.873c-6.065,0.046-11.621-0.77-16.008-2.407c-1.404-0.523-2.705-1.135-3.859-1.819
	c-14.954-8.797-20.625-13.444-20.672-13.488c-4.469-3.313-6.821-5.003-6.821-5.003l-0.008-0.003
	c0.37-3.705,0.083-7.664-1.477-11.456c-2.278-5.55-6.798-9.624-13.441-12.102c-0.325-0.122-0.662-0.238-0.998-0.354
	c-14.899-5.043-29.934,3.995-40.225,24.167c-2.185,4.258-4.02,8.861-5.187,12.983c-7.367-1.094-13.387-2.77-17.219-4.01
	c0,0,2.919-7.825,4.521-11.54c5.62-13.028,11.766-21.141,18.271-24.112c4.452-2.036,12.361-3.49,22.479-3.585
	c13.343-0.125,30.529,2.112,48.695,8.493c0.892,0.324,1.794,0.643,2.691,0.977c1.587,0.592,3.215,1.218,4.977,1.902
	c6.02,2.354,11.635,4.729,17.072,7.02c6.185,2.615,12.026,5.083,17.772,7.227c8.285,3.091,17.857,6.128,28.664,7.014
	c-6.993,2.97-15.896,4.467-28.458,1.933l-11.316-2.287l8.286,8.037C394.174,143.411,397.611,145.371,402.135,147.059z
	 M546.256,115.41h-0.007v0.007h0.007V115.41z"/>
</svg>
