<?xml version="1.0" encoding="utf-8"?>
<!-- Generator: Adobe Illustrator 14.0.0, SVG Export Plug-In . SVG Version: 6.00 Build 43363)  -->
<!DOCTYPE svg PUBLIC "-//W3C//DTD SVG 1.1//EN" "http://www.w3.org/Graphics/SVG/1.1/DTD/svg11.dtd">
<svg version="1.1" id="Layer_2" xmlns="http://www.w3.org/2000/svg" xmlns:xlink="http://www.w3.org/1999/xlink" x="0px" y="0px"
	 width="792px" height="792px" viewBox="0 0 792 792" enable-background="new 0 0 792 792" xml:space="preserve">
<path fill="#FBD374" d="M287.874,188.933c-0.447-0.274-0.88-0.548-1.284-0.821c1.886-0.896,3.506-2.035,4.869-3.328
	c4.247,4.658,14.375,6.507,19.796,4.732c0,0-8.42-4.99-9.768-9.04c8.234,3.753,21.426,3.689,26.679-1.101
	c-1.456,6.252-13.804,18.566-17.11,18.414C307.941,197.646,295.117,193.328,287.874,188.933z M504.732,170.053
	c-24.639,7.755-46.798,0.373-77.623-4.512c-1.748-0.276-3.521-0.544-5.322-0.801c-0.968-0.138-1.933-0.265-2.893-0.386
	c-6.348-0.781-12.586-1.146-18.598-1.167c-24.787-0.086-45.705,5.677-54.439,12.231c-8.105,6.083-11.912,18.851-13.981,29.535
	c-0.787,4.047-1.322,7.8-1.746,10.771c-22.357-1.611-42.805-12.933-52.521-18.472c-9.716-5.535-8.332-10.343-5.087-15.823
	c-2.803-2.111-5.366-4.252-7.687-6.359c-0.991,6.951-5.058,9.391-6.381,10.383c-0.133,0.1-0.203,0.268-0.199,0.499
	c0.037,2.07,5.937,9.254,24.473,18.984c20.609,10.818,42.475,15.249,46.681,15.848c3.01,0.429,8.614,1.015,15.727,0.911
	c2.813-0.041,5.863-0.19,9.082-0.5c-0.006-0.841,0.018-1.751,0.077-2.71c0.219-3.824,0.923-8.499,2.197-13.344
	c3.929-14.988,13.275-31.621,30.483-29.703c17.668,1.968,19.559,17.076,16.905,29.021l0.279,0.061c0,0,14.932,2.523,18.609,7.424
	c0.733-5.149-4.171-7.598-8.584-13.479c0,0,6.52,3.383,23.582,8.967c3.104,1.016,6.565,1.457,10.203,1.438
	c16.367-0.084,36.279-9.49,42.918-17.865c0,0-17.334,1.216-25.056-3.572C486.891,187.097,496.839,178.734,504.732,170.053z
	 M546.256,188.58h-0.007v0.007h0.007V188.58z"/>
</svg>
