<?xml version="1.0" encoding="utf-8"?>
<!-- Generator: Adobe Illustrator 14.0.0, SVG Export Plug-In . SVG Version: 6.00 Build 43363)  -->
<!DOCTYPE svg PUBLIC "-//W3C//DTD SVG 1.1//EN" "http://www.w3.org/Graphics/SVG/1.1/DTD/svg11.dtd">
<svg version="1.1" id="Layer_2" xmlns="http://www.w3.org/2000/svg" xmlns:xlink="http://www.w3.org/1999/xlink" x="0px" y="0px"
	 width="792px" height="792px" viewBox="0 0 792 792" enable-background="new 0 0 792 792" xml:space="preserve">
<path fill="#96D4DD" d="M269.385,235.452c10.32-1.447,22.22-2.639,31.42-2.833c3.156-0.066,5.995-0.016,8.343,0.183
	c-0.411,4.166-4.303,10.164-6.842,11.926c-14.377-0.01-24.007,1.512-40.075,5.379C266.086,246.179,268.07,241.635,269.385,235.452z
	 M268.857,257.357c-4.274,2.832-8.042,6.739-10.601,12.075c6.973,0.824,12.938,1.29,16.378,1.252
	c1.387-0.015,2.364-0.112,2.83-0.301c4.039-1.639,7.047-16.049,17.179-20.154C288.593,249.745,279.293,250.43,268.857,257.357z
	 M362.687,235.79l-3.448,0.169l-32.263,1.583l-0.073,0.006c-4.685,0.34-8.231,1.683-11.972,4.479
	c-0.009,0.012-0.013,0.013-0.022,0.02c-7.797,6-18.217,14.845-26.107,22.377c15.651-1.51,46.329-2.604,62.96-1.133l14.095-21.551
	C368.787,237.262,365.783,235.982,362.687,235.79z M546.256,245.726h-0.007v0.007h0.007V245.726z"/>
</svg>
