<?xml version="1.0" encoding="utf-8"?>
<!-- Generator: Adobe Illustrator 14.0.0, SVG Export Plug-In . SVG Version: 6.00 Build 43363)  -->
<!DOCTYPE svg PUBLIC "-//W3C//DTD SVG 1.1//EN" "http://www.w3.org/Graphics/SVG/1.1/DTD/svg11.dtd">
<svg version="1.1" id="Layer_2" xmlns="http://www.w3.org/2000/svg" xmlns:xlink="http://www.w3.org/1999/xlink" x="0px" y="0px"
	 width="792px" height="792px" viewBox="0 0 792 792" enable-background="new 0 0 792 792" xml:space="preserve">
<path fill="#168CBC" d="M394.146,481.479c0,8.195-5.403,14.842-12.064,14.842s-12.059-6.646-12.059-14.842
	c0-8.196,5.397-14.842,12.059-14.842S394.146,473.283,394.146,481.479z M546.256,446.303c-0.014,3.684-0.453,6.682-1.33,7.559
	c-2.205,2.205-14.035,8.772-22.163,11.164c-0.504,0.146-0.999,0.281-1.472,0.396c0.609-1.997,0.858-3.962,0.821-5.84
	c-0.15-8.513-6.136-15.163-11.247-13.952c-3.178,0.749-5.689,2.643-7.592,6.662c1.263-1.279,2.822-2.033,4.502-2.033
	c4.249,0,7.691,4.814,7.691,10.754c0,5.938-3.442,10.753-7.691,10.753c-3.67,0-6.733-3.582-7.504-8.377
	c-0.338,2.179-0.623,4.612-0.857,7.322l-97.697,23.624c1.561-2.896,2.913-7.742,3.328-13.063c0.942-12.2-3.063-26.891-20.831-26.345
	c-17.307,0.53-24.212,18.315-25.985,33.708c-0.577,4.977-0.614,9.704-0.292,13.521c0.078,0.957,0.182,1.861,0.307,2.693
	c-11.087,2.684-20.374,3.095-24.618,3.095c-4.249,0-26.521-1.3-48.45-9.101c-20.214-7.189-26.912-13.606-26.919-15.483
	c0-0.159,0.047-0.286,0.138-0.378c1.17-1.169,4.852-4.159,4.852-11.18s0-13.495,0-13.495c0-14.326,49.116-32.438,83.755-29.494
	c10.5-7.484,26.058-16.854,35.502-21.701c3.24-1.664,5.762-2.798,7.109-3.137c1.632-0.412,10.189-0.599,21.607-0.576
	c25.58,0.051,65.523,1.154,74.16,3.135c5.257,1.207,11.467,4.488,17.094,7.885l33.931,1.477v-3.541c0-0.572,0.468-1.041,1.04-1.041
	h7.041c0.571,0,1.039,0.469,1.039,1.041v8.221c0,0.572-0.468,1.041-1.039,1.041h-7.041c-0.572,0-1.04-0.469-1.04-1.041l-4.737-0.385
	c0,0-1.41,3.167-1.41,4.217c5.326,0.558,10.77,1.77,12.59,4.406C545.121,432.117,546.279,440.162,546.256,446.303z M333.834,491.922
	l-0.208-0.011c-25.289,0.718-46.484-6.387-61.872-14.899c-2.439,5.883-3.13,10.838,7.27,14.946
	c10.401,4.112,32.242,12.434,54.603,10.873C333.626,499.831,333.626,496.04,333.834,491.922z"/>
</svg>
