<?xml version="1.0" encoding="utf-8"?>
<!-- Generator: Adobe Illustrator 14.0.0, SVG Export Plug-In . SVG Version: 6.00 Build 43363)  -->
<!DOCTYPE svg PUBLIC "-//W3C//DTD SVG 1.1//EN" "http://www.w3.org/Graphics/SVG/1.1/DTD/svg11.dtd">
<svg version="1.1" id="Layer_2" xmlns="http://www.w3.org/2000/svg" xmlns:xlink="http://www.w3.org/1999/xlink" x="0px" y="0px"
	 width="792px" height="792px" viewBox="0 0 792 792" enable-background="new 0 0 792 792" xml:space="preserve">
<path fill="#F29F34" d="M546.255,335.127c0.047-6.162-1.111-14.335-3.409-17.673c-1.82-2.637-7.264-3.848-12.59-4.405
	c0-1.05,1.41-4.217,1.41-4.217l4.737,0.384c0,0.572,0.468,1.041,1.04,1.041h7.041c0.571,0,1.039-0.468,1.039-1.041v-8.221
	c0-0.573-0.468-1.041-1.039-1.041h-7.041c-0.572,0-1.04,0.468-1.04,1.041v3.541l-33.931-1.477
	c-5.627-3.396-11.837-6.677-17.094-7.884c-8.895-2.04-50.991-3.149-76.41-3.137c-10.281,0.005-17.834,0.193-19.357,0.578
	c-1.347,0.338-3.869,1.472-7.109,3.136c-9.444,4.847-25.002,14.217-35.502,21.701c-34.639-2.944-83.755,15.168-83.755,29.495
	c0,0,0,6.475,0,13.495s-3.681,10.011-4.852,11.18c-0.094,0.094-0.142,0.226-0.138,0.393c0.043,1.896,6.759,8.298,26.919,15.469
	c21.929,7.801,44.202,9.101,48.45,9.101c4.244,0,13.531-0.411,24.618-3.095c-0.125-0.832-0.229-1.736-0.307-2.693
	c-0.323-3.816-0.286-8.544,0.292-13.521c1.773-15.393,8.679-33.178,25.985-33.708c17.769-0.546,21.773,14.145,20.831,26.345
	c-0.415,5.32-1.768,10.166-3.328,13.063l1.088-0.26l96.609-23.364c0.234-2.71,0.52-5.144,0.857-7.322
	c0.744-4.831,1.737-8.435,3.002-11.097c1.902-4.02,4.414-5.913,7.592-6.662c5.111-1.211,11.097,5.439,11.247,13.952
	c0.037,1.878-0.212,3.843-0.821,5.84c0.473-0.114,0.968-0.25,1.472-0.396c8.128-2.392,19.958-8.959,22.163-11.164
	C545.789,341.641,546.228,338.727,546.255,335.127z M446.97,302.789c7.437-0.39,14.327-0.863,20.4-1.191l5.425,17.14l-47.552,6.401
	l20.219-22.273l0.198-0.223L446.97,302.789z M333.626,391.473c-22.361,1.561-44.202-6.761-54.603-10.873
	c-10.4-4.108-9.708-9.063-7.27-14.946c15.388,8.513,36.583,15.617,61.872,14.899l0.208,0.011
	C333.626,384.682,333.626,388.473,333.626,391.473z M484.203,317.204l-5.07-16.027c4.301-0.021,7.76,0.208,10.15,0.853
	c7.109,1.903,19.111,11.914,19.111,11.914L484.203,317.204z"/>
</svg>
