<?xml version="1.0" encoding="utf-8"?>
<!-- Generator: Adobe Illustrator 14.0.0, SVG Export Plug-In . SVG Version: 6.00 Build 43363)  -->
<!DOCTYPE svg PUBLIC "-//W3C//DTD SVG 1.1//EN" "http://www.w3.org/Graphics/SVG/1.1/DTD/svg11.dtd">
<svg version="1.1" id="Layer_2" xmlns="http://www.w3.org/2000/svg" xmlns:xlink="http://www.w3.org/1999/xlink" x="0px" y="0px"
	 width="792px" height="792px" viewBox="0 0 792 792" enable-background="new 0 0 792 792" xml:space="preserve">
<path fill="#034569" d="M546.256,559.746c0.023-6.14-1.135-14.186-3.41-17.49c-1.82-2.637-7.264-3.849-12.59-4.406
	c0-1.05,1.41-4.217,1.41-4.217l4.737,0.385c0,0.572,0.468,1.041,1.04,1.041h7.041c0.571,0,1.039-0.469,1.039-1.041v-8.221
	c0-0.572-0.468-1.041-1.039-1.041h-7.041c-0.572,0-1.04,0.469-1.04,1.041v3.541l-33.931-1.477
	c-5.627-3.396-11.837-6.678-17.094-7.885c-9.162-2.102-53.559-3.216-78.66-3.133c-9.123,0.03-15.697,0.218-17.107,0.574
	c-1.347,0.339-3.869,1.473-7.109,3.137c-9.444,4.847-25.002,14.217-35.502,21.701c-34.639-2.944-83.755,15.168-83.755,29.494
	c0,0,0,6.475,0,13.495s-3.681,10.011-4.852,11.18c-0.093,0.094-0.141,0.224-0.138,0.388c0.031,1.889,6.74,8.297,26.919,15.474
	c21.929,7.801,44.202,9.101,48.45,9.101c4.244,0,13.531-0.411,24.618-3.095c-0.125-0.832-0.229-1.736-0.307-2.693
	c7.171,4.218,16.23,4.618,23.744,4.618c7.65,0,14.488-3.708,19.012-9.532l91.597-21.3c4.592,3.104,10.405,3.4,15.231,3.4
	c7.343,0,13.51-6.084,15.241-14.316c8.128-2.392,19.958-8.959,22.163-11.164C545.803,566.428,546.242,563.43,546.256,559.746z"/>
</svg>
