<?xml version="1.0" encoding="UTF-8"?>
<svg xmlns="http://www.w3.org/2000/svg" xmlns:xlink="http://www.w3.org/1999/xlink" width="4500" height="1000" viewBox="0 0 4355 1257">
<path fill-rule="nonzero" fill="white" fill-opacity="1" d="M 2913.300781 83.128906 C 3165.820312 127.210938 3528.808594 222.828125 3571.230469 265.359375 C 3596.539062 290.738281 3581.570312 392.328125 2877.871094 439.917969 L 2913.230469 83.140625 Z M 2388.5 60.609375 C 2398.949219 60.609375 2409.339844 60.789062 2419.679688 61.148438 L 2845.519531 69.109375 L 2845.589844 69.109375 L 2845.519531 69.121094 C 2833.140625 194.019531 2820.769531 318.910156 2808.390625 443.808594 L 1674.441406 432.117188 L 1674.378906 432.109375 C 1684.921875 425.875 1693.53125 418.886719 1700.199219 411.144531 L 1705.878906 402.695312 C 1714.890625 383.984375 1709.679688 367.585938 1690.269531 353.507812 C 1668.761719 337.921875 1635.609375 329.003906 1590.839844 326.757812 C 1587.441406 326.675781 1584.070312 326.636719 1580.738281 326.636719 C 1563 326.636719 1546.121094 327.785156 1530.121094 330.078125 L 1530.121094 330.074219 C 1712.308594 222.679688 2072.808594 60.609375 2388.5 60.609375 Z M 2630.148438 503.835938 C 2663.789062 503.984375 2691.769531 505.984375 2714.101562 509.84375 C 2736.429688 513.699219 2748.019531 518.535156 2748.871094 524.347656 L 2747.789062 527.125 C 2742.648438 532.734375 2727.621094 537.21875 2702.699219 540.578125 C 2681.589844 543.402344 2657.339844 544.816406 2629.929688 544.816406 C 2624.75 544.816406 2619.449219 544.765625 2614.039062 544.664062 C 2581.589844 543.777344 2555.628906 541.179688 2536.171875 536.875 C 2529.941406 535.484375 2524.800781 533.96875 2520.769531 532.328125 L 2515.679688 529.796875 C 2512.878906 528.054688 2511.46875 526.238281 2511.429688 524.347656 C 2512.289062 518.535156 2523.878906 513.699219 2546.210938 509.84375 C 2568.539062 505.984375 2596.519531 503.984375 2630.148438 503.835938 Z M 4307.808594 481.933594 L 4307.808594 481.96875 L 4307.890625 481.976562 L 4307.890625 481.992188 C 4307.910156 481.957031 4307.941406 481.957031 4307.960938 481.957031 C 4310.441406 481.957031 4312.808594 483.027344 4314.460938 484.882812 C 4316.128906 486.753906 4316.910156 489.253906 4316.628906 491.746094 L 4313.019531 522.742188 L 4309.410156 553.75 C 4309.050781 556.898438 4307.019531 559.609375 4304.089844 560.839844 L 4239.570312 588.023438 C 4238.46875 588.488281 4237.308594 588.714844 4236.160156 588.714844 C 4234 588.714844 4231.878906 587.917969 4230.230469 586.410156 C 4227.691406 584.09375 4226.730469 580.511719 4227.78125 577.242188 C 4236.550781 549.773438 4245.320312 522.304688 4254.101562 494.839844 C 4255.121094 491.644531 4257.859375 489.3125 4261.171875 488.816406 C 4276.28125 486.554688 4291.390625 484.292969 4306.511719 482.03125 C 4306.941406 481.964844 4307.378906 481.933594 4307.808594 481.933594 Z M 149.0625 527.941406 L 149.0625 527.976562 L 149.105469 527.984375 L 149.105469 528 C 149.128906 527.960938 149.15625 527.960938 149.179688 527.960938 C 151.859375 527.960938 154.421875 529.0625 156.28125 530.996094 C 158.160156 532.945312 159.164062 535.578125 159.058594 538.285156 C 157.71875 573.453125 156.378906 608.621094 155.039062 643.785156 C 154.949219 646.175781 154 648.453125 152.367188 650.203125 L 88.652344 718.484375 C 87.035156 720.21875 84.886719 721.289062 82.609375 721.574219 C 66.089844 628.640625 39.128906 607.558594 50.195312 572.597656 C 52.046875 566.757812 57.667969 559.625 65.90625 551.699219 C 92.542969 543.957031 119.183594 536.277344 145.785156 528.496094 C 146.828125 528.191406 147.914062 527.941406 149.0625 527.941406 Z M 2442.679688 0 L 2442.679688 0.199219 C 2340.199219 2.800781 2191.109375 12.199219 1978.949219 57.289062 C 1836.179688 87.640625 1615.851562 204.628906 1321.421875 364.667969 C 1118 326.0625 992.597656 302.359375 851.339844 302.359375 C 743.6875 302.359375 626.832031 316.125 459.222656 347.558594 C 377.957031 362.796875 321.046875 384.316406 234.871094 419.792969 C 212.390625 429.042969 37.125 523.230469 24.957031 561.65625 C 12.792969 600.082031 46.582031 621.742188 61.933594 740.503906 C 26.320312 743.503906 16.851562 760.054688 18.914062 803.460938 L 20.148438 810.691406 L 27.984375 811.386719 L 44.421875 812.84375 C 47.4375 813.113281 50.03125 815.09375 51.085938 817.933594 C 69.738281 868.21875 88.324219 918.328125 106.847656 968.265625 C 107.804688 970.851562 107.335938 973.75 105.609375 975.902344 C 104.109375 977.777344 101.851562 978.84375 99.488281 978.84375 C 99.132812 978.84375 98.777344 978.820312 98.421875 978.769531 C 79.960938 976.25 61.5 973.726562 43.035156 971.203125 L 43 971.210938 C 42.09375 1012.164062 26.820312 1016.683594 20.125 1016.683594 C 18.230469 1016.683594 17.023438 1016.320312 17.023438 1016.320312 C 16.613281 1016.199219 16.214844 1016.136719 15.832031 1016.136719 C 10.308594 1016.136719 7.402344 1028.535156 3.441406 1043.863281 C -5.496094 1078.460938 5.792969 1082.675781 5.792969 1082.675781 C 66.519531 1115.945312 165.335938 1129.019531 423.367188 1141.957031 C 406.398438 1093.578125 368.332031 927.871094 370.695312 870.742188 C 375.515625 754.398438 421.132812 657.523438 502.324219 580.296875 C 582.789062 503.761719 682.816406 465.71875 801.96875 465.714844 C 802.90625 465.714844 803.847656 465.691406 804.792969 465.691406 C 805.402344 465.691406 806.015625 465.703125 806.628906 465.738281 C 922.882812 472.367188 1019.78125 516.238281 1097.070312 597.363281 C 1121.96875 623.5 1143.078125 652.730469 1160.648438 684.8125 L 1183.75 734.679688 C 1197.148438 769.25 1205.828125 805.847656 1209.789062 844.480469 L 1211.628906 901.667969 C 1209.03125 946.675781 1175.878906 1096.589844 1162.140625 1135.769531 C 1273.058594 1131.121094 1454.300781 1072.042969 1454.300781 1072.042969 L 2692.070312 1075.542969 C 2771.410156 1113.089844 2830.820312 1137.25 2996.390625 1141.050781 L 3369.640625 1149.617188 C 3354.660156 1103.601562 3328.820312 924.46875 3331.089844 870.742188 C 3335.980469 754.402344 3381.519531 657.523438 3462.71875 580.296875 C 3543.179688 503.761719 3643.210938 465.71875 3762.359375 465.714844 C 3763.300781 465.714844 3764.238281 465.691406 3765.179688 465.691406 C 3765.789062 465.691406 3766.410156 465.703125 3767.019531 465.738281 C 3883.269531 472.367188 3980.171875 516.238281 4057.460938 597.363281 C 4082.359375 623.5 4103.46875 652.730469 4121.039062 684.8125 L 4144.140625 734.679688 C 4157.539062 769.25 4166.21875 805.847656 4170.179688 844.480469 L 4172.019531 901.667969 C 4171.421875 912.015625 4157.761719 1009.03125 4140.011719 1096.675781 C 4140.410156 1096.554688 4270.480469 1073.949219 4339.519531 1007.835938 C 4342.390625 1005.082031 4345.519531 1002.644531 4345.53125 998.664062 C 4345.539062 987.335938 4345.550781 976 4345.558594 964.667969 L 4345.480469 964.675781 C 4320.179688 978.136719 4294.890625 991.605469 4269.609375 1005.078125 C 4269.210938 1005.289062 4268.800781 1005.453125 4268.378906 1005.574219 C 4267.800781 1005.742188 4267.199219 1005.824219 4266.609375 1005.824219 C 4265.328125 1005.824219 4264.058594 1005.441406 4262.96875 1004.679688 C 4261 1003.3125 4259.980469 1000.957031 4260.300781 998.589844 C 4264.371094 969.054688 4268.441406 939.476562 4272.53125 909.855469 C 4272.820312 907.746094 4274.148438 905.917969 4276.070312 904.992188 L 4316.96875 885.28125 L 4345.558594 871.5 L 4345.640625 871.507812 C 4345.640625 867.859375 4345.640625 864.21875 4345.648438 860.578125 C 4345.648438 856.425781 4343.089844 852.699219 4339.210938 851.214844 L 4327.769531 844.996094 C 4345.769531 769.289062 4347.71875 641.335938 4352.359375 592.238281 L 4324.199219 566.964844 L 4337.488281 472.777344 L 4354.78125 440.335938 C 4333.410156 360.964844 4287.699219 315.300781 4219.011719 293.828125 C 4150.320312 272.359375 3853.878906 246.058594 3733.511719 213.960938 C 3180.601562 66.53125 2978.121094 24.640625 2834.710938 11.699219 Z M 2442.679688 0 "/>
<path fill-rule="nonzero" fill="black" fill-opacity="1" d="M 790.410156 650.253906 C 786.023438 650.253906 781.738281 650.671875 777.414062 650.917969 L 790.171875 794.46875 C 790.25 794.46875 790.328125 794.445312 790.40625 794.445312 C 791.046875 794.445312 791.625 794.617188 792.253906 794.636719 L 803.4375 650.914062 C 799.09375 650.667969 794.804688 650.25 790.410156 650.253906 Z M 751.34375 653.761719 C 677.375 666.167969 615.007812 712.921875 581.355469 777.183594 L 716.039062 832.824219 C 727.722656 816.578125 744.597656 804.574219 764.226562 798.699219 Z M 829.488281 653.765625 L 818.171875 799.1875 C 837.660156 805.410156 854.429688 817.628906 865.835938 834.101562 L 999.457031 777.167969 C 965.800781 712.921875 903.449219 666.171875 829.488281 653.765625 Z M 570.597656 801.078125 C 567.464844 809.132812 564.8125 817.394531 562.574219 825.84375 L 703.472656 858.175781 C 703.683594 857.53125 703.859375 856.867188 704.074219 856.230469 Z M 1010.21875 801.082031 L 877.214844 857.757812 C 877.425781 858.40625 877.617188 859.054688 877.816406 859.699219 L 1018.25 825.851562 C 1016.011719 817.394531 1013.351562 809.136719 1010.21875 801.082031 Z M 790.410156 873.097656 C 783.1875 873.097656 777.300781 878.96875 777.300781 886.203125 C 777.300781 893.441406 783.1875 899.3125 790.410156 899.3125 C 797.628906 899.3125 803.519531 893.441406 803.519531 886.199219 C 803.519531 878.96875 797.628906 873.097656 790.410156 873.097656 Z M 790.410156 846.878906 C 812.089844 846.878906 829.734375 864.523438 829.734375 886.203125 C 829.734375 907.886719 812.089844 925.527344 790.410156 925.527344 C 768.726562 925.527344 751.082031 907.886719 751.082031 886.203125 C 751.082031 864.523438 768.726562 846.878906 790.410156 846.878906 Z M 790.410156 820.660156 C 754.273438 820.664062 724.867188 850.058594 724.867188 886.207031 C 724.867188 922.339844 754.273438 951.746094 790.410156 951.746094 C 826.542969 951.75 855.953125 922.339844 855.953125 886.203125 C 855.953125 850.058594 826.546875 820.660156 790.410156 820.660156 Z M 1023.519531 851.519531 L 882.109375 885.601562 C 882.109375 885.8125 882.167969 885.992188 882.167969 886.203125 C 882.167969 907.105469 874.90625 926.148438 863.144531 941.574219 L 958.742188 1051.246094 C 1000.5 1008.664062 1026.359375 950.425781 1026.359375 886.203125 C 1026.359375 874.386719 1025.199219 862.875 1023.519531 851.519531 Z M 557.296875 851.542969 C 555.609375 862.886719 554.453125 874.394531 554.453125 886.203125 C 554.453125 950.488281 580.359375 1008.785156 622.199219 1051.382812 L 716.761719 940.464844 C 705.515625 925.230469 698.648438 906.582031 698.648438 886.203125 C 698.648438 885.609375 698.8125 885.058594 698.824219 884.464844 Z M 844.449219 960.039062 C 843.890625 960.449219 843.417969 960.964844 842.851562 961.355469 L 918.289062 1084.210938 C 925.59375 1079.472656 932.679688 1074.457031 939.402344 1068.96875 Z M 735.273438 959.125 L 641.546875 1069.058594 C 648.269531 1074.546875 655.363281 1079.566406 662.679688 1084.292969 L 736.863281 960.433594 C 736.304688 960.03125 735.824219 959.535156 735.273438 959.125 Z M 760.214844 972.46875 L 685.476562 1097.234375 C 717.140625 1113.039062 752.691406 1122.160156 790.40625 1122.15625 C 828.195312 1122.15625 863.808594 1113.007812 895.496094 1097.15625 L 819.203125 972.902344 C 810.097656 975.925781 800.53125 977.960938 790.410156 977.960938 C 779.773438 977.960938 769.714844 975.796875 760.214844 972.46875 Z M 790.410156 624.03125 C 935.195312 624.03125 1052.578125 741.40625 1052.578125 886.203125 C 1052.578125 1030.992188 935.195312 1148.371094 790.40625 1148.371094 C 645.621094 1148.371094 528.238281 1030.988281 528.238281 886.199219 C 528.238281 741.40625 645.621094 624.03125 790.410156 624.03125 Z M 800.574219 516.386719 C 695.78125 516.386719 607.933594 549.976562 537.039062 617.160156 C 465.757812 685.214844 427.171875 770.363281 421.273438 872.605469 C 420.386719 979.207031 453.972656 1068.417969 522.027344 1140.238281 C 590.082031 1211.515625 675.226562 1250.105469 777.472656 1256.003906 C 778.839844 1256.015625 780.207031 1256.019531 781.570312 1256.019531 C 886.367188 1256.019531 974.210938 1222.429688 1045.109375 1155.25 C 1116.390625 1087.195312 1154.96875 1002.046875 1160.871094 899.804688 L 1159.25 849.511719 C 1155.769531 815.53125 1148.140625 783.34375 1136.351562 752.941406 L 1116.039062 709.082031 C 1100.578125 680.863281 1081.941406 655.226562 1060.121094 632.167969 C 992.0625 560.890625 906.917969 522.300781 804.671875 516.40625 C 803.304688 516.390625 801.9375 516.386719 800.574219 516.386719 Z M 800.574219 516.386719 "/>
<path fill-rule="nonzero" fill="black" fill-opacity="1" d="M 3750.800781 650.253906 C 3746.410156 650.253906 3742.128906 650.671875 3737.808594 650.917969 L 3750.558594 794.46875 C 3750.640625 794.46875 3750.71875 794.445312 3750.800781 794.445312 C 3751.441406 794.445312 3752.011719 794.617188 3752.640625 794.636719 L 3763.828125 650.914062 C 3759.480469 650.667969 3755.191406 650.25 3750.800781 650.253906 Z M 3711.730469 653.761719 C 3637.769531 666.167969 3575.390625 712.921875 3541.738281 777.183594 L 3676.429688 832.824219 C 3688.109375 816.578125 3704.988281 804.574219 3724.609375 798.699219 Z M 3789.878906 653.765625 L 3778.558594 799.1875 C 3798.050781 805.410156 3814.820312 817.628906 3826.230469 834.101562 L 3959.839844 777.167969 C 3926.191406 712.921875 3863.839844 666.171875 3789.878906 653.765625 Z M 3530.980469 801.078125 C 3527.859375 809.132812 3525.199219 817.394531 3522.960938 825.84375 L 3663.859375 858.175781 C 3664.070312 857.53125 3664.25 856.867188 3664.46875 856.230469 Z M 3970.609375 801.082031 L 3837.601562 857.757812 C 3837.808594 858.40625 3838 859.054688 3838.210938 859.699219 L 3978.628906 825.851562 C 3976.390625 817.394531 3973.738281 809.136719 3970.609375 801.082031 Z M 3750.800781 873.097656 C 3743.578125 873.097656 3737.691406 878.96875 3737.691406 886.203125 C 3737.691406 893.441406 3743.578125 899.3125 3750.800781 899.3125 C 3758.019531 899.3125 3763.910156 893.441406 3763.910156 886.199219 C 3763.910156 878.96875 3758.019531 873.097656 3750.800781 873.097656 Z M 3750.800781 846.878906 C 3772.480469 846.878906 3790.121094 864.523438 3790.121094 886.203125 C 3790.121094 907.886719 3772.480469 925.527344 3750.800781 925.527344 C 3729.121094 925.527344 3711.46875 907.886719 3711.46875 886.203125 C 3711.46875 864.523438 3729.121094 846.878906 3750.800781 846.878906 Z M 3750.800781 820.660156 C 3714.660156 820.664062 3685.25 850.058594 3685.25 886.207031 C 3685.25 922.339844 3714.660156 951.746094 3750.800781 951.746094 C 3786.929688 951.75 3816.339844 922.339844 3816.339844 886.203125 C 3816.339844 850.058594 3786.929688 820.660156 3750.800781 820.660156 Z M 3983.910156 851.519531 L 3842.5 885.601562 C 3842.5 885.8125 3842.558594 885.992188 3842.558594 886.203125 C 3842.558594 907.105469 3835.300781 926.148438 3823.53125 941.574219 L 3919.128906 1051.246094 C 3960.890625 1008.664062 3986.75 950.425781 3986.75 886.203125 C 3986.75 874.386719 3985.589844 862.875 3983.910156 851.519531 Z M 3517.679688 851.542969 C 3516 862.886719 3514.839844 874.394531 3514.839844 886.203125 C 3514.839844 950.488281 3540.75 1008.785156 3582.589844 1051.382812 L 3677.148438 940.464844 C 3665.910156 925.230469 3659.03125 906.582031 3659.03125 886.203125 C 3659.03125 885.609375 3659.199219 885.058594 3659.210938 884.464844 Z M 3804.839844 960.039062 C 3804.28125 960.449219 3803.808594 960.964844 3803.238281 961.355469 L 3878.679688 1084.210938 C 3885.980469 1079.472656 3893.070312 1074.457031 3899.789062 1068.96875 Z M 3695.660156 959.125 L 3601.941406 1069.058594 C 3608.660156 1074.546875 3615.75 1079.566406 3623.070312 1084.292969 L 3697.25 960.433594 C 3696.691406 960.03125 3696.21875 959.535156 3695.660156 959.125 Z M 3720.609375 972.46875 L 3645.871094 1097.234375 C 3677.53125 1113.039062 3713.078125 1122.160156 3750.800781 1122.15625 C 3788.578125 1122.15625 3824.191406 1113.007812 3855.878906 1097.15625 L 3779.589844 972.902344 C 3770.488281 975.925781 3760.921875 977.960938 3750.800781 977.960938 C 3740.160156 977.960938 3730.101562 975.796875 3720.609375 972.46875 Z M 3750.800781 624.03125 C 3895.589844 624.03125 4012.96875 741.40625 4012.96875 886.203125 C 4012.96875 1030.992188 3895.589844 1148.371094 3750.800781 1148.371094 C 3606.011719 1148.371094 3488.628906 1030.988281 3488.628906 886.199219 C 3488.628906 741.40625 3606.011719 624.03125 3750.800781 624.03125 Z M 3760.96875 516.386719 C 3656.171875 516.386719 3568.320312 549.976562 3497.429688 617.160156 C 3426.148438 685.214844 3387.558594 770.363281 3381.660156 872.605469 C 3380.769531 979.207031 3414.359375 1068.417969 3482.421875 1140.238281 C 3550.46875 1211.515625 3635.621094 1250.105469 3737.859375 1256.003906 C 3739.230469 1256.015625 3740.601562 1256.019531 3741.960938 1256.019531 C 3846.75 1256.019531 3934.601562 1222.429688 4005.5 1155.25 C 4076.769531 1087.195312 4115.359375 1002.046875 4121.261719 899.804688 L 4119.640625 849.511719 C 4116.160156 815.53125 4108.519531 783.34375 4096.738281 752.941406 L 4076.429688 709.082031 C 4060.96875 680.863281 4042.328125 655.226562 4020.5 632.167969 C 3952.449219 560.890625 3867.308594 522.300781 3765.058594 516.40625 C 3763.691406 516.390625 3762.328125 516.386719 3760.96875 516.386719 Z M 3760.96875 516.386719 "/>
</svg>
